<svg xmlns="http://www.w3.org/2000/svg" width="26" height="26" viewBox="0 0 64 64">
  <!-- DNA double helix, bottom-to-top. Strands start at full left/right
       separation, each makes exactly one full spin, and end again at full
       left/right separation. Blue + red strands weave over/under white rungs. -->

  <!-- BACK strand segments (behind the rungs) -->
  <g>
    <path d="M 45.00 59.77 L 44.98 59.53 L 44.96 59.30 L 44.93 59.07 L 44.89 58.83 L 44.84 58.60 L 44.78 58.37 L 44.72 58.13 L 44.64 57.90 L 44.56 57.67 L 44.46 57.43 L 44.36 57.20 L 44.25 56.97 L 44.14 56.73 L 44.01 56.50 L 43.88 56.27 L 43.73 56.03 L 43.58 55.80 L 43.42 55.57 L 43.26 55.33 L 43.08 55.10 L 42.90 54.87 L 42.71 54.63 L 42.52 54.40 L 42.31 54.17 L 42.10 53.93 L 41.89 53.70 L 41.66 53.47 L 41.43 53.23 L 41.19 53.00 L 40.95 52.77 L 40.70 52.53 L 40.44 52.30 L 40.18 52.07 L 39.91 51.83 L 39.64 51.60 L 39.36 51.37 L 39.08 51.13 L 38.79 50.90 L 38.50 50.67 L 38.20 50.43 L 37.90 50.20 L 37.60 49.97 L 37.29 49.73 L 36.97 49.50 L 36.66 49.27 L 36.34 49.03 L 36.02 48.80 L 35.69 48.57 L 35.36 48.33 L 35.03 48.10 L 34.70 47.87 L 34.37 47.63 L 34.03 47.40 L 33.70 47.17 L 33.36 46.93 L 33.02 46.70 L 32.68 46.47 L 32.34 46.23 L 32.00 46.00 L 31.66 45.77 L 31.32 45.53 L 30.98 45.30 L 30.64 45.07 L 30.30 44.83 L 29.97 44.60 L 29.63 44.37 L 29.30 44.13 L 28.97 43.90 L 28.64 43.67 L 28.31 43.43 L 27.98 43.20 L 27.66 42.97 L 27.34 42.73 L 27.03 42.50 L 26.71 42.27 L 26.40 42.03 L 26.10 41.80 L 25.80 41.57 L 25.50 41.33 L 25.21 41.10 L 24.92 40.87 L 24.64 40.63 L 24.36 40.40 L 24.09 40.17 L 23.82 39.93 L 23.56 39.70 L 23.30 39.47 L 23.05 39.23 L 22.81 39.00 L 22.57 38.77 L 22.34 38.53 L 22.11 38.30 L 21.90 38.07 L 21.69 37.83 L 21.48 37.60 L 21.29 37.37 L 21.10 37.13 L 20.92 36.90 L 20.74 36.67 L 20.58 36.43 L 20.42 36.20 L 20.27 35.97 L 20.12 35.73 L 19.99 35.50 L 19.86 35.27 L 19.75 35.03 L 19.64 34.80 L 19.54 34.57 L 19.44 34.33 L 19.36 34.10 L 19.28 33.87 L 19.22 33.63 L 19.16 33.40 L 19.11 33.17 L 19.07 32.93 L 19.04 32.70 L 19.02 32.47 L 19.00 32.23 L 19.00 32.00" fill="none" stroke="#2196f3" stroke-width="5" stroke-linecap="round" stroke-linejoin="round"/>
    <path d="M 45.00 31.77 L 44.98 31.53 L 44.96 31.30 L 44.93 31.07 L 44.89 30.83 L 44.84 30.60 L 44.78 30.37 L 44.72 30.13 L 44.64 29.90 L 44.56 29.67 L 44.46 29.43 L 44.36 29.20 L 44.25 28.97 L 44.14 28.73 L 44.01 28.50 L 43.88 28.27 L 43.73 28.03 L 43.58 27.80 L 43.42 27.57 L 43.26 27.33 L 43.08 27.10 L 42.90 26.87 L 42.71 26.63 L 42.52 26.40 L 42.31 26.17 L 42.10 25.93 L 41.89 25.70 L 41.66 25.47 L 41.43 25.23 L 41.19 25.00 L 40.95 24.77 L 40.70 24.53 L 40.44 24.30 L 40.18 24.07 L 39.91 23.83 L 39.64 23.60 L 39.36 23.37 L 39.08 23.13 L 38.79 22.90 L 38.50 22.67 L 38.20 22.43 L 37.90 22.20 L 37.60 21.97 L 37.29 21.73 L 36.97 21.50 L 36.66 21.27 L 36.34 21.03 L 36.02 20.80 L 35.69 20.57 L 35.36 20.33 L 35.03 20.10 L 34.70 19.87 L 34.37 19.63 L 34.03 19.40 L 33.70 19.17 L 33.36 18.93 L 33.02 18.70 L 32.68 18.47 L 32.34 18.23 L 32.00 18.00 L 31.66 17.77 L 31.32 17.53 L 30.98 17.30 L 30.64 17.07 L 30.30 16.83 L 29.97 16.60 L 29.63 16.37 L 29.30 16.13 L 28.97 15.90 L 28.64 15.67 L 28.31 15.43 L 27.98 15.20 L 27.66 14.97 L 27.34 14.73 L 27.03 14.50 L 26.71 14.27 L 26.40 14.03 L 26.10 13.80 L 25.80 13.57 L 25.50 13.33 L 25.21 13.10 L 24.92 12.87 L 24.64 12.63 L 24.36 12.40 L 24.09 12.17 L 23.82 11.93 L 23.56 11.70 L 23.30 11.47 L 23.05 11.23 L 22.81 11.00 L 22.57 10.77 L 22.34 10.53 L 22.11 10.30 L 21.90 10.07 L 21.69 9.83 L 21.48 9.60 L 21.29 9.37 L 21.10 9.13 L 20.92 8.90 L 20.74 8.67 L 20.58 8.43 L 20.42 8.20 L 20.27 7.97 L 20.12 7.73 L 19.99 7.50 L 19.86 7.27 L 19.75 7.03 L 19.64 6.80 L 19.54 6.57 L 19.44 6.33 L 19.36 6.10 L 19.28 5.87 L 19.22 5.63 L 19.16 5.40 L 19.11 5.17 L 19.07 4.93 L 19.04 4.70 L 19.02 4.47 L 19.00 4.23 L 19.00 4.00" fill="none" stroke="#f44336" stroke-width="5" stroke-linecap="round" stroke-linejoin="round"/>
  </g>

  <!-- White connecting rungs (base pairs) -->
  <g stroke="#ffffff" stroke-width="2.5" stroke-linecap="round">
    <line x1="44.47" y1="57.45" x2="19.53" y2="57.45"/>
    <line x1="40.51" y1="52.36" x2="23.49" y2="52.36"/>
    <line x1="33.85" y1="47.27" x2="30.15" y2="47.27"/>
    <line x1="26.60" y1="42.18" x2="37.40" y2="42.18"/>
    <line x1="21.06" y1="37.09" x2="42.94" y2="37.09"/>
    <line x1="19.00" y1="32.00" x2="45.00" y2="32.00"/>
    <line x1="21.06" y1="26.91" x2="42.94" y2="26.91"/>
    <line x1="26.60" y1="21.82" x2="37.40" y2="21.82"/>
    <line x1="33.85" y1="16.73" x2="30.15" y2="16.73"/>
    <line x1="40.51" y1="11.64" x2="23.49" y2="11.64"/>
    <line x1="44.47" y1="6.55" x2="19.53" y2="6.55"/>
  </g>

  <!-- FRONT strand segments (in front of the rungs) -->
  <g>
    <path d="M 19.00 31.77 L 19.02 31.53 L 19.04 31.30 L 19.07 31.07 L 19.11 30.83 L 19.16 30.60 L 19.22 30.37 L 19.28 30.13 L 19.36 29.90 L 19.44 29.67 L 19.54 29.43 L 19.64 29.20 L 19.75 28.97 L 19.86 28.73 L 19.99 28.50 L 20.12 28.27 L 20.27 28.03 L 20.42 27.80 L 20.58 27.57 L 20.74 27.33 L 20.92 27.10 L 21.10 26.87 L 21.29 26.63 L 21.48 26.40 L 21.69 26.17 L 21.90 25.93 L 22.11 25.70 L 22.34 25.47 L 22.57 25.23 L 22.81 25.00 L 23.05 24.77 L 23.30 24.53 L 23.56 24.30 L 23.82 24.07 L 24.09 23.83 L 24.36 23.60 L 24.64 23.37 L 24.92 23.13 L 25.21 22.90 L 25.50 22.67 L 25.80 22.43 L 26.10 22.20 L 26.40 21.97 L 26.71 21.73 L 27.03 21.50 L 27.34 21.27 L 27.66 21.03 L 27.98 20.80 L 28.31 20.57 L 28.64 20.33 L 28.97 20.10 L 29.30 19.87 L 29.63 19.63 L 29.97 19.40 L 30.30 19.17 L 30.64 18.93 L 30.98 18.70 L 31.32 18.47 L 31.66 18.23 L 32.00 18.00 L 32.34 17.77 L 32.68 17.53 L 33.02 17.30 L 33.36 17.07 L 33.70 16.83 L 34.03 16.60 L 34.37 16.37 L 34.70 16.13 L 35.03 15.90 L 35.36 15.67 L 35.69 15.43 L 36.02 15.20 L 36.34 14.97 L 36.66 14.73 L 36.97 14.50 L 37.29 14.27 L 37.60 14.03 L 37.90 13.80 L 38.20 13.57 L 38.50 13.33 L 38.79 13.10 L 39.08 12.87 L 39.36 12.63 L 39.64 12.40 L 39.91 12.17 L 40.18 11.93 L 40.44 11.70 L 40.70 11.47 L 40.95 11.23 L 41.19 11.00 L 41.43 10.77 L 41.66 10.53 L 41.89 10.30 L 42.10 10.07 L 42.31 9.83 L 42.52 9.60 L 42.71 9.37 L 42.90 9.13 L 43.08 8.90 L 43.26 8.67 L 43.42 8.43 L 43.58 8.20 L 43.73 7.97 L 43.88 7.73 L 44.01 7.50 L 44.14 7.27 L 44.25 7.03 L 44.36 6.80 L 44.46 6.57 L 44.56 6.33 L 44.64 6.10 L 44.72 5.87 L 44.78 5.63 L 44.84 5.40 L 44.89 5.17 L 44.93 4.93 L 44.96 4.70 L 44.98 4.47 L 45.00 4.23 L 45.00 4.00" fill="none" stroke="#2196f3" stroke-width="5" stroke-linecap="round" stroke-linejoin="round"/>
    <path d="M 19.00 59.77 L 19.02 59.53 L 19.04 59.30 L 19.07 59.07 L 19.11 58.83 L 19.16 58.60 L 19.22 58.37 L 19.28 58.13 L 19.36 57.90 L 19.44 57.67 L 19.54 57.43 L 19.64 57.20 L 19.75 56.97 L 19.86 56.73 L 19.99 56.50 L 20.12 56.27 L 20.27 56.03 L 20.42 55.80 L 20.58 55.57 L 20.74 55.33 L 20.92 55.10 L 21.10 54.87 L 21.29 54.63 L 21.48 54.40 L 21.69 54.17 L 21.90 53.93 L 22.11 53.70 L 22.34 53.47 L 22.57 53.23 L 22.81 53.00 L 23.05 52.77 L 23.30 52.53 L 23.56 52.30 L 23.82 52.07 L 24.09 51.83 L 24.36 51.60 L 24.64 51.37 L 24.92 51.13 L 25.21 50.90 L 25.50 50.67 L 25.80 50.43 L 26.10 50.20 L 26.40 49.97 L 26.71 49.73 L 27.03 49.50 L 27.34 49.27 L 27.66 49.03 L 27.98 48.80 L 28.31 48.57 L 28.64 48.33 L 28.97 48.10 L 29.30 47.87 L 29.63 47.63 L 29.97 47.40 L 30.30 47.17 L 30.64 46.93 L 30.98 46.70 L 31.32 46.47 L 31.66 46.23 L 32.00 46.00 L 32.34 45.77 L 32.68 45.53 L 33.02 45.30 L 33.36 45.07 L 33.70 44.83 L 34.03 44.60 L 34.37 44.37 L 34.70 44.13 L 35.03 43.90 L 35.36 43.67 L 35.69 43.43 L 36.02 43.20 L 36.34 42.97 L 36.66 42.73 L 36.97 42.50 L 37.29 42.27 L 37.60 42.03 L 37.90 41.80 L 38.20 41.57 L 38.50 41.33 L 38.79 41.10 L 39.08 40.87 L 39.36 40.63 L 39.64 40.40 L 39.91 40.17 L 40.18 39.93 L 40.44 39.70 L 40.70 39.47 L 40.95 39.23 L 41.19 39.00 L 41.43 38.77 L 41.66 38.53 L 41.89 38.30 L 42.10 38.07 L 42.31 37.83 L 42.52 37.60 L 42.71 37.37 L 42.90 37.13 L 43.08 36.90 L 43.26 36.67 L 43.42 36.43 L 43.58 36.20 L 43.73 35.97 L 43.88 35.73 L 44.01 35.50 L 44.14 35.27 L 44.25 35.03 L 44.36 34.80 L 44.46 34.57 L 44.56 34.33 L 44.64 34.10 L 44.72 33.87 L 44.78 33.63 L 44.84 33.40 L 44.89 33.17 L 44.93 32.93 L 44.96 32.70 L 44.98 32.47 L 45.00 32.23 L 45.00 32.00" fill="none" stroke="#f44336" stroke-width="5" stroke-linecap="round" stroke-linejoin="round"/>
  </g>
</svg>
