<svg xmlns="http://www.w3.org/2000/svg" viewBox="0 0 64 64" width="64" height="64">
<defs>
<linearGradient id="bRung" x1="0" y1="0" x2="1" y2="0">
<stop offset="0" stop-color="#d8dce4"/><stop offset="0.5" stop-color="#aeb4c0"/>
<stop offset="1" stop-color="#7a808e"/></linearGradient></defs>
<g fill="none">
<path d="M 30.87 52.48 L 32.00 52.80" stroke="#0a1f66" stroke-width="1.60" stroke-linecap="round"/>
<path d="M 30.87 21.27 L 32.00 21.60" stroke="#6e0000" stroke-width="1.60" stroke-linecap="round"/>
<path d="M 32.00 21.60 L 33.13 21.93" stroke="#6e0000" stroke-width="1.60" stroke-linecap="round"/>
<path d="M 30.87 42.07 L 32.00 42.40" stroke="#6e0000" stroke-width="1.60" stroke-linecap="round"/>
<path d="M 32.00 42.40 L 33.13 42.73" stroke="#6e0000" stroke-width="1.60" stroke-linecap="round"/>
<path d="M 30.87 10.88 L 32.00 11.20" stroke="#0a1f66" stroke-width="1.60" stroke-linecap="round"/>
<path d="M 32.00 11.20 L 33.13 11.52" stroke="#0a1f66" stroke-width="1.60" stroke-linecap="round"/>
<path d="M 30.87 31.68 L 32.00 32.00" stroke="#0a1f66" stroke-width="1.60" stroke-linecap="round"/>
<path d="M 32.00 32.00 L 33.13 32.33" stroke="#0a1f66" stroke-width="1.60" stroke-linecap="round"/>
<path d="M 32.00 52.80 L 33.13 53.12" stroke="#0a1f66" stroke-width="1.60" stroke-linecap="round"/>
<path d="M 33.13 53.12 L 34.24 53.45" stroke="#0b2066" stroke-width="1.62" stroke-linecap="round"/>
<path d="M 29.76 41.75 L 30.87 42.07" stroke="#6e0000" stroke-width="1.62" stroke-linecap="round"/>
<path d="M 33.13 42.73 L 34.24 43.05" stroke="#6e0000" stroke-width="1.62" stroke-linecap="round"/>
<path d="M 33.13 32.33 L 34.24 32.65" stroke="#0b2066" stroke-width="1.62" stroke-linecap="round"/>
<path d="M 33.13 21.93 L 34.24 22.25" stroke="#6e0000" stroke-width="1.62" stroke-linecap="round"/>
<path d="M 33.13 11.52 L 34.24 11.85" stroke="#0b2066" stroke-width="1.62" stroke-linecap="round"/>
<path d="M 29.76 20.95 L 30.87 21.27" stroke="#6e0000" stroke-width="1.62" stroke-linecap="round"/>
<path d="M 29.76 10.55 L 30.87 10.88" stroke="#0b2066" stroke-width="1.62" stroke-linecap="round"/>
<path d="M 29.76 31.35 L 30.87 31.68" stroke="#0b2066" stroke-width="1.62" stroke-linecap="round"/>
<path d="M 29.76 52.15 L 30.87 52.48" stroke="#0b2066" stroke-width="1.62" stroke-linecap="round"/>
<path d="M 34.24 53.45 L 35.34 53.77" stroke="#0c2168" stroke-width="1.64" stroke-linecap="round"/>
<path d="M 34.24 22.25 L 35.34 22.57" stroke="#700202" stroke-width="1.64" stroke-linecap="round"/>
<path d="M 34.24 43.05 L 35.34 43.38" stroke="#700202" stroke-width="1.64" stroke-linecap="round"/>
<path d="M 34.24 11.85 L 35.34 12.18" stroke="#0c2168" stroke-width="1.64" stroke-linecap="round"/>
<path d="M 34.24 32.65 L 35.34 32.98" stroke="#0c2168" stroke-width="1.64" stroke-linecap="round"/>
<path d="M 28.66 20.62 L 29.76 20.95" stroke="#700202" stroke-width="1.64" stroke-linecap="round"/>
<path d="M 28.66 41.43 L 29.76 41.75" stroke="#700202" stroke-width="1.64" stroke-linecap="round"/>
<path d="M 28.66 10.23 L 29.76 10.55" stroke="#0c2168" stroke-width="1.64" stroke-linecap="round"/>
<path d="M 28.66 31.03 L 29.76 31.35" stroke="#0c2168" stroke-width="1.64" stroke-linecap="round"/>
<path d="M 28.66 51.82 L 29.76 52.15" stroke="#0c2168" stroke-width="1.64" stroke-linecap="round"/>
<path d="M 35.34 22.57 L 36.40 22.90" stroke="#720404" stroke-width="1.68" stroke-linecap="round"/>
<path d="M 35.34 43.38 L 36.40 43.70" stroke="#720404" stroke-width="1.68" stroke-linecap="round"/>
<path d="M 35.34 12.18 L 36.40 12.50" stroke="#0f246a" stroke-width="1.68" stroke-linecap="round"/>
<path d="M 35.34 32.98 L 36.40 33.30" stroke="#0f246a" stroke-width="1.68" stroke-linecap="round"/>
<path d="M 35.34 53.77 L 36.40 54.10" stroke="#0f246a" stroke-width="1.68" stroke-linecap="round"/>
<path d="M 27.60 20.30 L 28.66 20.62" stroke="#720404" stroke-width="1.68" stroke-linecap="round"/>
<path d="M 27.60 9.90 L 28.66 10.23" stroke="#0f246a" stroke-width="1.68" stroke-linecap="round"/>
<path d="M 27.60 41.10 L 28.66 41.43" stroke="#720404" stroke-width="1.68" stroke-linecap="round"/>
<path d="M 27.60 30.70 L 28.66 31.03" stroke="#0f246a" stroke-width="1.68" stroke-linecap="round"/>
<path d="M 27.60 51.50 L 28.66 51.82" stroke="#0f246a" stroke-width="1.68" stroke-linecap="round"/>
<path d="M 36.40 54.10 L 37.42 54.43" stroke="#12276d" stroke-width="1.74" stroke-linecap="round"/>
<path d="M 36.40 43.70 L 37.42 44.02" stroke="#750707" stroke-width="1.74" stroke-linecap="round"/>
<path d="M 36.40 33.30 L 37.42 33.62" stroke="#12276d" stroke-width="1.74" stroke-linecap="round"/>
<path d="M 36.40 22.90 L 37.42 23.22" stroke="#750707" stroke-width="1.74" stroke-linecap="round"/>
<path d="M 36.40 12.50 L 37.42 12.82" stroke="#12276d" stroke-width="1.74" stroke-linecap="round"/>
<path d="M 26.58 19.98 L 27.60 20.30" stroke="#750707" stroke-width="1.74" stroke-linecap="round"/>
<path d="M 26.58 9.57 L 27.60 9.90" stroke="#12276d" stroke-width="1.74" stroke-linecap="round"/>
<path d="M 26.58 40.77 L 27.60 41.10" stroke="#750707" stroke-width="1.74" stroke-linecap="round"/>
<path d="M 26.58 30.38 L 27.60 30.70" stroke="#12276d" stroke-width="1.74" stroke-linecap="round"/>
<path d="M 26.58 51.18 L 27.60 51.50" stroke="#12276d" stroke-width="1.74" stroke-linecap="round"/>
<path d="M 37.42 54.43 L 38.39 54.75" stroke="#162b70" stroke-width="1.80" stroke-linecap="round"/>
<path d="M 37.42 44.02 L 38.39 44.35" stroke="#780b0b" stroke-width="1.80" stroke-linecap="round"/>
<path d="M 37.42 33.62 L 38.39 33.95" stroke="#162b70" stroke-width="1.80" stroke-linecap="round"/>
<path d="M 37.42 23.22 L 38.39 23.55" stroke="#780b0b" stroke-width="1.80" stroke-linecap="round"/>
<path d="M 37.42 12.82 L 38.39 13.15" stroke="#162b70" stroke-width="1.80" stroke-linecap="round"/>
<path d="M 25.61 19.65 L 26.58 19.98" stroke="#780b0b" stroke-width="1.80" stroke-linecap="round"/>
<path d="M 25.61 9.25 L 26.58 9.57" stroke="#162b70" stroke-width="1.80" stroke-linecap="round"/>
<path d="M 25.61 40.45 L 26.58 40.77" stroke="#780b0b" stroke-width="1.80" stroke-linecap="round"/>
<path d="M 25.61 30.05 L 26.58 30.38" stroke="#162b70" stroke-width="1.80" stroke-linecap="round"/>
<path d="M 25.61 50.85 L 26.58 51.18" stroke="#162b70" stroke-width="1.80" stroke-linecap="round"/>
<path d="M 38.39 54.75 L 39.30 55.07" stroke="#1a3075" stroke-width="1.88" stroke-linecap="round"/>
<path d="M 38.39 44.35 L 39.30 44.68" stroke="#7c0f0f" stroke-width="1.88" stroke-linecap="round"/>
<path d="M 38.39 33.95 L 39.30 34.27" stroke="#1a3075" stroke-width="1.88" stroke-linecap="round"/>
<path d="M 38.39 13.15 L 39.30 13.47" stroke="#1a3075" stroke-width="1.88" stroke-linecap="round"/>
<path d="M 38.39 23.55 L 39.30 23.88" stroke="#7c0f0f" stroke-width="1.88" stroke-linecap="round"/>
<path d="M 24.70 40.12 L 25.61 40.45" stroke="#7c0f0f" stroke-width="1.88" stroke-linecap="round"/>
<path d="M 24.70 29.72 L 25.61 30.05" stroke="#1a3075" stroke-width="1.88" stroke-linecap="round"/>
<path d="M 24.70 19.32 L 25.61 19.65" stroke="#7c0f0f" stroke-width="1.88" stroke-linecap="round"/>
<path d="M 24.70 8.93 L 25.61 9.25" stroke="#1a3075" stroke-width="1.88" stroke-linecap="round"/>
<path d="M 24.70 50.52 L 25.61 50.85" stroke="#1a3075" stroke-width="1.88" stroke-linecap="round"/>
<path d="M 39.30 55.07 L 40.13 55.40" stroke="#203579" stroke-width="1.96" stroke-linecap="round"/>
<path d="M 39.30 44.68 L 40.13 45.00" stroke="#801414" stroke-width="1.96" stroke-linecap="round"/>
<path d="M 39.30 34.27 L 40.13 34.60" stroke="#203579" stroke-width="1.96" stroke-linecap="round"/>
<path d="M 39.30 13.47 L 40.13 13.80" stroke="#203579" stroke-width="1.96" stroke-linecap="round"/>
<path d="M 23.87 39.80 L 24.70 40.12" stroke="#801414" stroke-width="1.96" stroke-linecap="round"/>
<path d="M 23.87 29.40 L 24.70 29.72" stroke="#203579" stroke-width="1.96" stroke-linecap="round"/>
<path d="M 39.30 23.88 L 40.13 24.20" stroke="#801414" stroke-width="1.96" stroke-linecap="round"/>
<path d="M 23.87 50.20 L 24.70 50.52" stroke="#203579" stroke-width="1.96" stroke-linecap="round"/>
<path d="M 23.87 19.00 L 24.70 19.32" stroke="#801414" stroke-width="1.96" stroke-linecap="round"/>
<path d="M 23.87 8.60 L 24.70 8.93" stroke="#203579" stroke-width="1.96" stroke-linecap="round"/>
<path d="M 40.13 55.40 L 40.89 55.73" stroke="#253b7f" stroke-width="2.06" stroke-linecap="round"/>
<path d="M 23.11 29.07 L 23.87 29.40" stroke="#253b7f" stroke-width="2.06" stroke-linecap="round"/>
<path d="M 40.13 45.00 L 40.89 45.32" stroke="#851919" stroke-width="2.06" stroke-linecap="round"/>
<path d="M 40.13 34.60 L 40.89 34.92" stroke="#253b7f" stroke-width="2.06" stroke-linecap="round"/>
<path d="M 40.13 24.20 L 40.89 24.53" stroke="#851919" stroke-width="2.06" stroke-linecap="round"/>
<path d="M 40.13 13.80 L 40.89 14.12" stroke="#253b7f" stroke-width="2.06" stroke-linecap="round"/>
<path d="M 23.11 18.67 L 23.87 19.00" stroke="#851919" stroke-width="2.06" stroke-linecap="round"/>
<path d="M 23.11 39.48 L 23.87 39.80" stroke="#851919" stroke-width="2.06" stroke-linecap="round"/>
<path d="M 23.11 8.28 L 23.87 8.60" stroke="#253b7f" stroke-width="2.06" stroke-linecap="round"/>
<path d="M 23.11 49.88 L 23.87 50.20" stroke="#253b7f" stroke-width="2.06" stroke-linecap="round"/>
<path d="M 40.89 55.73 L 41.56 56.05" stroke="#2c4284" stroke-width="2.17" stroke-linecap="round"/>
<path d="M 40.89 24.53 L 41.56 24.85" stroke="#8b1f1f" stroke-width="2.17" stroke-linecap="round"/>
<path d="M 40.89 45.32 L 41.56 45.65" stroke="#8b1f1f" stroke-width="2.17" stroke-linecap="round"/>
<path d="M 22.44 28.75 L 23.11 29.07" stroke="#2c4284" stroke-width="2.17" stroke-linecap="round"/>
<path d="M 40.89 34.92 L 41.56 35.25" stroke="#2c4284" stroke-width="2.17" stroke-linecap="round"/>
<path d="M 40.89 14.12 L 41.56 14.45" stroke="#2c4284" stroke-width="2.17" stroke-linecap="round"/>
<path d="M 22.44 18.35 L 23.11 18.67" stroke="#8b1f1f" stroke-width="2.17" stroke-linecap="round"/>
<path d="M 22.44 7.95 L 23.11 8.28" stroke="#2c4284" stroke-width="2.17" stroke-linecap="round"/>
<path d="M 22.44 39.15 L 23.11 39.48" stroke="#8b1f1f" stroke-width="2.17" stroke-linecap="round"/>
<path d="M 22.44 49.55 L 23.11 49.88" stroke="#2c4284" stroke-width="2.17" stroke-linecap="round"/>
<path d="M 41.56 56.05 L 42.14 56.38" stroke="#33498b" stroke-width="2.28" stroke-linecap="round"/>
<path d="M 41.56 45.65 L 42.14 45.98" stroke="#912525" stroke-width="2.28" stroke-linecap="round"/>
<path d="M 41.56 35.25 L 42.14 35.58" stroke="#33498b" stroke-width="2.28" stroke-linecap="round"/>
<path d="M 41.56 24.85 L 42.14 25.18" stroke="#912525" stroke-width="2.28" stroke-linecap="round"/>
<path d="M 41.56 14.45 L 42.14 14.78" stroke="#33498b" stroke-width="2.28" stroke-linecap="round"/>
<path d="M 21.86 18.02 L 22.44 18.35" stroke="#912525" stroke-width="2.28" stroke-linecap="round"/>
<path d="M 21.86 7.62 L 22.44 7.95" stroke="#33498b" stroke-width="2.28" stroke-linecap="round"/>
<path d="M 21.86 38.82 L 22.44 39.15" stroke="#912525" stroke-width="2.28" stroke-linecap="round"/>
<path d="M 21.86 28.43 L 22.44 28.75" stroke="#33498b" stroke-width="2.28" stroke-linecap="round"/>
<path d="M 21.86 49.23 L 22.44 49.55" stroke="#33498b" stroke-width="2.28" stroke-linecap="round"/>
<path d="M 42.14 56.38 L 42.62 56.70" stroke="#3a5091" stroke-width="2.40" stroke-linecap="round"/>
<path d="M 42.14 45.98 L 42.62 46.30" stroke="#972c2c" stroke-width="2.40" stroke-linecap="round"/>
<path d="M 42.14 35.58 L 42.62 35.90" stroke="#3a5091" stroke-width="2.40" stroke-linecap="round"/>
<path d="M 42.14 25.18 L 42.62 25.50" stroke="#972c2c" stroke-width="2.40" stroke-linecap="round"/>
<path d="M 42.14 14.78 L 42.62 15.10" stroke="#3a5091" stroke-width="2.40" stroke-linecap="round"/>
<path d="M 21.38 17.70 L 21.86 18.02" stroke="#972c2c" stroke-width="2.40" stroke-linecap="round"/>
<path d="M 21.38 38.50 L 21.86 38.82" stroke="#972c2c" stroke-width="2.40" stroke-linecap="round"/>
<path d="M 21.38 7.30 L 21.86 7.62" stroke="#3a5091" stroke-width="2.40" stroke-linecap="round"/>
<path d="M 21.38 28.10 L 21.86 28.43" stroke="#3a5091" stroke-width="2.40" stroke-linecap="round"/>
<path d="M 21.38 48.90 L 21.86 49.23" stroke="#3a5091" stroke-width="2.40" stroke-linecap="round"/>
<path d="M 42.62 56.70 L 43.00 57.02" stroke="#425898" stroke-width="2.53" stroke-linecap="round"/>
<path d="M 42.62 46.30 L 43.00 46.62" stroke="#9e3333" stroke-width="2.53" stroke-linecap="round"/>
<path d="M 42.62 35.90 L 43.00 36.23" stroke="#425898" stroke-width="2.53" stroke-linecap="round"/>
<path d="M 42.62 25.50 L 43.00 25.82" stroke="#9e3333" stroke-width="2.53" stroke-linecap="round"/>
<path d="M 42.62 15.10 L 43.00 15.42" stroke="#425898" stroke-width="2.53" stroke-linecap="round"/>
<path d="M 21.00 38.18 L 21.38 38.50" stroke="#9e3333" stroke-width="2.53" stroke-linecap="round"/>
<path d="M 21.00 48.57 L 21.38 48.90" stroke="#425898" stroke-width="2.53" stroke-linecap="round"/>
<path d="M 21.00 17.38 L 21.38 17.70" stroke="#9e3333" stroke-width="2.53" stroke-linecap="round"/>
<path d="M 21.00 6.97 L 21.38 7.30" stroke="#425898" stroke-width="2.53" stroke-linecap="round"/>
<path d="M 21.00 27.78 L 21.38 28.10" stroke="#425898" stroke-width="2.53" stroke-linecap="round"/>
<path d="M 43.00 57.02 L 43.28 57.35" stroke="#4a609f" stroke-width="2.66" stroke-linecap="round"/>
<path d="M 43.00 46.62 L 43.28 46.95" stroke="#a43a3a" stroke-width="2.66" stroke-linecap="round"/>
<path d="M 43.00 36.23 L 43.28 36.55" stroke="#4a609f" stroke-width="2.66" stroke-linecap="round"/>
<path d="M 43.00 25.82 L 43.28 26.15" stroke="#a43a3a" stroke-width="2.66" stroke-linecap="round"/>
<path d="M 43.00 15.42 L 43.28 15.75" stroke="#4a609f" stroke-width="2.66" stroke-linecap="round"/>
<path d="M 20.72 17.05 L 21.00 17.38" stroke="#a43a3a" stroke-width="2.66" stroke-linecap="round"/>
<path d="M 20.72 6.65 L 21.00 6.97" stroke="#4a609f" stroke-width="2.66" stroke-linecap="round"/>
<path d="M 20.72 37.85 L 21.00 38.18" stroke="#a43a3a" stroke-width="2.66" stroke-linecap="round"/>
<path d="M 20.72 27.45 L 21.00 27.78" stroke="#4a609f" stroke-width="2.66" stroke-linecap="round"/>
<path d="M 20.72 48.25 L 21.00 48.57" stroke="#4a609f" stroke-width="2.66" stroke-linecap="round"/>
<path d="M 43.28 57.35 L 43.44 57.68" stroke="#5268a7" stroke-width="2.79" stroke-linecap="round"/>
<path d="M 43.28 26.15 L 43.44 26.47" stroke="#ab4141" stroke-width="2.79" stroke-linecap="round"/>
<path d="M 43.28 15.75 L 43.44 16.08" stroke="#5268a7" stroke-width="2.79" stroke-linecap="round"/>
<path d="M 20.56 16.73 L 20.72 17.05" stroke="#ab4141" stroke-width="2.79" stroke-linecap="round"/>
<path d="M 20.56 6.33 L 20.72 6.65" stroke="#5268a7" stroke-width="2.79" stroke-linecap="round"/>
<path d="M 43.28 46.95 L 43.44 47.27" stroke="#ab4141" stroke-width="2.79" stroke-linecap="round"/>
<path d="M 43.28 36.55 L 43.44 36.88" stroke="#5268a7" stroke-width="2.79" stroke-linecap="round"/>
<path d="M 20.56 37.52 L 20.72 37.85" stroke="#ab4141" stroke-width="2.79" stroke-linecap="round"/>
<path d="M 20.56 27.12 L 20.72 27.45" stroke="#5268a7" stroke-width="2.79" stroke-linecap="round"/>
<path d="M 20.56 47.93 L 20.72 48.25" stroke="#5268a7" stroke-width="2.79" stroke-linecap="round"/>
<path d="M 43.44 57.68 L 43.50 58.00" stroke="#5a71ae" stroke-width="2.93" stroke-linecap="round"/>
<path d="M 43.44 47.27 L 43.50 47.60" stroke="#b24949" stroke-width="2.93" stroke-linecap="round"/>
<path d="M 43.44 36.88 L 43.50 37.20" stroke="#5a71ae" stroke-width="2.93" stroke-linecap="round"/>
<path d="M 43.44 26.47 L 43.50 26.80" stroke="#b24949" stroke-width="2.93" stroke-linecap="round"/>
<path d="M 43.44 16.08 L 43.50 16.40" stroke="#5a71ae" stroke-width="2.93" stroke-linecap="round"/>
<path d="M 20.50 16.40 L 20.56 16.73" stroke="#b24949" stroke-width="2.93" stroke-linecap="round"/>
<path d="M 20.50 6.00 L 20.56 6.33" stroke="#5a71ae" stroke-width="2.93" stroke-linecap="round"/>
<path d="M 20.50 37.20 L 20.56 37.52" stroke="#b24949" stroke-width="2.93" stroke-linecap="round"/>
<path d="M 20.50 26.80 L 20.56 27.12" stroke="#5a71ae" stroke-width="2.93" stroke-linecap="round"/>
<path d="M 20.50 47.60 L 20.56 47.93" stroke="#5a71ae" stroke-width="2.93" stroke-linecap="round"/>
<path d="M 21.00 57.02 L 43.00 57.02" stroke="url(#bRung)" stroke-width="1.5" stroke-linecap="round"/>
<path d="M 23.87 19.00 L 40.13 19.00" stroke="url(#bRung)" stroke-width="1.5" stroke-linecap="round"/>
<path d="M 20.72 36.55 L 43.28 36.55" stroke="url(#bRung)" stroke-width="1.5" stroke-linecap="round"/>
<path d="M 25.61 13.15 L 38.39 13.15" stroke="url(#bRung)" stroke-width="1.5" stroke-linecap="round"/>
<path d="M 33.13 21.93 L 30.87 21.93" stroke="url(#bRung)" stroke-width="1.5" stroke-linecap="round"/>
<path d="M 26.58 33.62 L 37.42 33.62" stroke="url(#bRung)" stroke-width="1.5" stroke-linecap="round"/>
<path d="M 23.11 39.48 L 40.89 39.48" stroke="url(#bRung)" stroke-width="1.5" stroke-linecap="round"/>
<path d="M 32.00 42.40 L 32.00 42.40" stroke="url(#bRung)" stroke-width="1.5" stroke-linecap="round"/>
<path d="M 37.42 51.18 L 26.58 51.18" stroke="url(#bRung)" stroke-width="1.5" stroke-linecap="round"/>
<path d="M 27.60 54.10 L 36.40 54.10" stroke="url(#bRung)" stroke-width="1.5" stroke-linecap="round"/>
<path d="M 42.62 7.30 L 21.38 7.30" stroke="url(#bRung)" stroke-width="1.5" stroke-linecap="round"/>
<path d="M 35.34 10.23 L 28.66 10.23" stroke="url(#bRung)" stroke-width="1.5" stroke-linecap="round"/>
<path d="M 41.56 24.85 L 22.44 24.85" stroke="url(#bRung)" stroke-width="1.5" stroke-linecap="round"/>
<path d="M 36.40 30.70 L 27.60 30.70" stroke="url(#bRung)" stroke-width="1.5" stroke-linecap="round"/>
<path d="M 40.89 45.32 L 23.11 45.32" stroke="url(#bRung)" stroke-width="1.5" stroke-linecap="round"/>
<path d="M 43.28 48.25 L 20.72 48.25" stroke="url(#bRung)" stroke-width="1.5" stroke-linecap="round"/>
<path d="M 20.56 16.08 L 43.44 16.08" stroke="url(#bRung)" stroke-width="1.5" stroke-linecap="round"/>
<path d="M 43.00 27.78 L 21.00 27.78" stroke="url(#bRung)" stroke-width="1.5" stroke-linecap="round"/>
<path d="M 43.50 47.60 L 43.44 47.93" stroke="#ba5050" stroke-width="3.07" stroke-linecap="round"/>
<path d="M 43.50 37.20 L 43.44 37.52" stroke="#6379b6" stroke-width="3.07" stroke-linecap="round"/>
<path d="M 43.50 26.80 L 43.44 27.12" stroke="#ba5050" stroke-width="3.07" stroke-linecap="round"/>
<path d="M 43.50 16.40 L 43.44 16.73" stroke="#6379b6" stroke-width="3.07" stroke-linecap="round"/>
<path d="M 43.50 6.00 L 43.44 6.33" stroke="#ba5050" stroke-width="3.07" stroke-linecap="round"/>
<path d="M 20.56 16.08 L 20.50 16.40" stroke="#ba5050" stroke-width="3.07" stroke-linecap="round"/>
<path d="M 20.56 36.88 L 20.50 37.20" stroke="#ba5050" stroke-width="3.07" stroke-linecap="round"/>
<path d="M 20.56 26.47 L 20.50 26.80" stroke="#6379b6" stroke-width="3.07" stroke-linecap="round"/>
<path d="M 20.56 57.68 L 20.50 58.00" stroke="#ba5050" stroke-width="3.07" stroke-linecap="round"/>
<path d="M 20.56 47.27 L 20.50 47.60" stroke="#6379b6" stroke-width="3.07" stroke-linecap="round"/>
<path d="M 43.44 47.93 L 43.28 48.25" stroke="#c15858" stroke-width="3.21" stroke-linecap="round"/>
<path d="M 43.44 37.52 L 43.28 37.85" stroke="#6b82bd" stroke-width="3.21" stroke-linecap="round"/>
<path d="M 43.44 27.12 L 43.28 27.45" stroke="#c15858" stroke-width="3.21" stroke-linecap="round"/>
<path d="M 43.44 16.73 L 43.28 17.05" stroke="#6b82bd" stroke-width="3.21" stroke-linecap="round"/>
<path d="M 20.72 36.55 L 20.56 36.88" stroke="#c15858" stroke-width="3.21" stroke-linecap="round"/>
<path d="M 20.72 26.15 L 20.56 26.47" stroke="#6b82bd" stroke-width="3.21" stroke-linecap="round"/>
<path d="M 43.44 6.33 L 43.28 6.65" stroke="#c15858" stroke-width="3.21" stroke-linecap="round"/>
<path d="M 20.72 57.35 L 20.56 57.68" stroke="#c15858" stroke-width="3.21" stroke-linecap="round"/>
<path d="M 20.72 46.95 L 20.56 47.27" stroke="#6b82bd" stroke-width="3.21" stroke-linecap="round"/>
<path d="M 20.72 15.75 L 20.56 16.08" stroke="#c15858" stroke-width="3.21" stroke-linecap="round"/>
<path d="M 43.28 48.25 L 43.00 48.57" stroke="#c85f5f" stroke-width="3.34" stroke-linecap="round"/>
<path d="M 21.00 25.82 L 20.72 26.15" stroke="#738ac5" stroke-width="3.34" stroke-linecap="round"/>
<path d="M 43.28 37.85 L 43.00 38.18" stroke="#738ac5" stroke-width="3.34" stroke-linecap="round"/>
<path d="M 43.28 27.45 L 43.00 27.78" stroke="#c85f5f" stroke-width="3.34" stroke-linecap="round"/>
<path d="M 43.28 17.05 L 43.00 17.38" stroke="#738ac5" stroke-width="3.34" stroke-linecap="round"/>
<path d="M 43.28 6.65 L 43.00 6.97" stroke="#c85f5f" stroke-width="3.34" stroke-linecap="round"/>
<path d="M 21.00 15.42 L 20.72 15.75" stroke="#c85f5f" stroke-width="3.34" stroke-linecap="round"/>
<path d="M 21.00 36.23 L 20.72 36.55" stroke="#c85f5f" stroke-width="3.34" stroke-linecap="round"/>
<path d="M 21.00 57.02 L 20.72 57.35" stroke="#c85f5f" stroke-width="3.34" stroke-linecap="round"/>
<path d="M 21.00 46.62 L 20.72 46.95" stroke="#738ac5" stroke-width="3.34" stroke-linecap="round"/>
<path d="M 43.00 27.78 L 42.62 28.10" stroke="#ce6666" stroke-width="3.47" stroke-linecap="round"/>
<path d="M 43.00 17.38 L 42.62 17.70" stroke="#7b92cc" stroke-width="3.47" stroke-linecap="round"/>
<path d="M 43.00 6.97 L 42.62 7.30" stroke="#ce6666" stroke-width="3.47" stroke-linecap="round"/>
<path d="M 21.38 15.10 L 21.00 15.42" stroke="#ce6666" stroke-width="3.47" stroke-linecap="round"/>
<path d="M 43.00 48.57 L 42.62 48.90" stroke="#ce6666" stroke-width="3.47" stroke-linecap="round"/>
<path d="M 21.38 25.50 L 21.00 25.82" stroke="#7b92cc" stroke-width="3.47" stroke-linecap="round"/>
<path d="M 43.00 38.18 L 42.62 38.50" stroke="#7b92cc" stroke-width="3.47" stroke-linecap="round"/>
<path d="M 21.38 35.90 L 21.00 36.23" stroke="#ce6666" stroke-width="3.47" stroke-linecap="round"/>
<path d="M 21.38 56.70 L 21.00 57.02" stroke="#ce6666" stroke-width="3.47" stroke-linecap="round"/>
<path d="M 21.38 46.30 L 21.00 46.62" stroke="#7b92cc" stroke-width="3.47" stroke-linecap="round"/>
<path d="M 42.62 48.90 L 42.14 49.23" stroke="#d56d6d" stroke-width="3.60" stroke-linecap="round"/>
<path d="M 42.62 38.50 L 42.14 38.82" stroke="#839ad3" stroke-width="3.60" stroke-linecap="round"/>
<path d="M 42.62 7.30 L 42.14 7.62" stroke="#d56d6d" stroke-width="3.60" stroke-linecap="round"/>
<path d="M 42.62 28.10 L 42.14 28.43" stroke="#d56d6d" stroke-width="3.60" stroke-linecap="round"/>
<path d="M 42.62 17.70 L 42.14 18.02" stroke="#839ad3" stroke-width="3.60" stroke-linecap="round"/>
<path d="M 21.86 14.78 L 21.38 15.10" stroke="#d56d6d" stroke-width="3.60" stroke-linecap="round"/>
<path d="M 21.86 35.58 L 21.38 35.90" stroke="#d56d6d" stroke-width="3.60" stroke-linecap="round"/>
<path d="M 21.86 25.18 L 21.38 25.50" stroke="#839ad3" stroke-width="3.60" stroke-linecap="round"/>
<path d="M 21.86 56.38 L 21.38 56.70" stroke="#d56d6d" stroke-width="3.60" stroke-linecap="round"/>
<path d="M 21.86 45.98 L 21.38 46.30" stroke="#839ad3" stroke-width="3.60" stroke-linecap="round"/>
<path d="M 42.14 49.23 L 41.56 49.55" stroke="#db7474" stroke-width="3.72" stroke-linecap="round"/>
<path d="M 42.14 38.82 L 41.56 39.15" stroke="#8aa1d9" stroke-width="3.72" stroke-linecap="round"/>
<path d="M 42.14 28.43 L 41.56 28.75" stroke="#db7474" stroke-width="3.72" stroke-linecap="round"/>
<path d="M 42.14 18.02 L 41.56 18.35" stroke="#8aa1d9" stroke-width="3.72" stroke-linecap="round"/>
<path d="M 42.14 7.62 L 41.56 7.95" stroke="#db7474" stroke-width="3.72" stroke-linecap="round"/>
<path d="M 22.44 14.45 L 21.86 14.78" stroke="#db7474" stroke-width="3.72" stroke-linecap="round"/>
<path d="M 22.44 35.25 L 21.86 35.58" stroke="#db7474" stroke-width="3.72" stroke-linecap="round"/>
<path d="M 22.44 24.85 L 21.86 25.18" stroke="#8aa1d9" stroke-width="3.72" stroke-linecap="round"/>
<path d="M 22.44 56.05 L 21.86 56.38" stroke="#db7474" stroke-width="3.72" stroke-linecap="round"/>
<path d="M 22.44 45.65 L 21.86 45.98" stroke="#8aa1d9" stroke-width="3.72" stroke-linecap="round"/>
<path d="M 41.56 49.55 L 40.89 49.88" stroke="#e17a7a" stroke-width="3.83" stroke-linecap="round"/>
<path d="M 41.56 39.15 L 40.89 39.48" stroke="#91a8e0" stroke-width="3.83" stroke-linecap="round"/>
<path d="M 41.56 18.35 L 40.89 18.67" stroke="#91a8e0" stroke-width="3.83" stroke-linecap="round"/>
<path d="M 41.56 28.75 L 40.89 29.07" stroke="#e17a7a" stroke-width="3.83" stroke-linecap="round"/>
<path d="M 41.56 7.95 L 40.89 8.28" stroke="#e17a7a" stroke-width="3.83" stroke-linecap="round"/>
<path d="M 23.11 14.12 L 22.44 14.45" stroke="#e17a7a" stroke-width="3.83" stroke-linecap="round"/>
<path d="M 23.11 34.92 L 22.44 35.25" stroke="#e17a7a" stroke-width="3.83" stroke-linecap="round"/>
<path d="M 23.11 55.73 L 22.44 56.05" stroke="#e17a7a" stroke-width="3.83" stroke-linecap="round"/>
<path d="M 23.11 45.32 L 22.44 45.65" stroke="#91a8e0" stroke-width="3.83" stroke-linecap="round"/>
<path d="M 23.11 24.53 L 22.44 24.85" stroke="#91a8e0" stroke-width="3.83" stroke-linecap="round"/>
<path d="M 40.89 18.67 L 40.13 19.00" stroke="#98afe5" stroke-width="3.94" stroke-linecap="round"/>
<path d="M 40.89 49.88 L 40.13 50.20" stroke="#e78080" stroke-width="3.94" stroke-linecap="round"/>
<path d="M 40.89 39.48 L 40.13 39.80" stroke="#98afe5" stroke-width="3.94" stroke-linecap="round"/>
<path d="M 40.89 8.28 L 40.13 8.60" stroke="#e78080" stroke-width="3.94" stroke-linecap="round"/>
<path d="M 40.89 29.07 L 40.13 29.40" stroke="#e78080" stroke-width="3.94" stroke-linecap="round"/>
<path d="M 23.87 13.80 L 23.11 14.12" stroke="#e78080" stroke-width="3.94" stroke-linecap="round"/>
<path d="M 23.87 34.60 L 23.11 34.92" stroke="#e78080" stroke-width="3.94" stroke-linecap="round"/>
<path d="M 23.87 55.40 L 23.11 55.73" stroke="#e78080" stroke-width="3.94" stroke-linecap="round"/>
<path d="M 23.87 45.00 L 23.11 45.32" stroke="#98afe5" stroke-width="3.94" stroke-linecap="round"/>
<path d="M 23.87 24.20 L 23.11 24.53" stroke="#98afe5" stroke-width="3.94" stroke-linecap="round"/>
<path d="M 40.13 29.40 L 39.30 29.72" stroke="#ec8585" stroke-width="4.04" stroke-linecap="round"/>
<path d="M 40.13 19.00 L 39.30 19.32" stroke="#9db5eb" stroke-width="4.04" stroke-linecap="round"/>
<path d="M 40.13 8.60 L 39.30 8.93" stroke="#ec8585" stroke-width="4.04" stroke-linecap="round"/>
<path d="M 24.70 13.47 L 23.87 13.80" stroke="#ec8585" stroke-width="4.04" stroke-linecap="round"/>
<path d="M 40.13 50.20 L 39.30 50.52" stroke="#ec8585" stroke-width="4.04" stroke-linecap="round"/>
<path d="M 40.13 39.80 L 39.30 40.12" stroke="#9db5eb" stroke-width="4.04" stroke-linecap="round"/>
<path d="M 24.70 34.27 L 23.87 34.60" stroke="#ec8585" stroke-width="4.04" stroke-linecap="round"/>
<path d="M 24.70 23.88 L 23.87 24.20" stroke="#9db5eb" stroke-width="4.04" stroke-linecap="round"/>
<path d="M 24.70 55.07 L 23.87 55.40" stroke="#ec8585" stroke-width="4.04" stroke-linecap="round"/>
<path d="M 24.70 44.68 L 23.87 45.00" stroke="#9db5eb" stroke-width="4.04" stroke-linecap="round"/>
<path d="M 39.30 29.72 L 38.39 30.05" stroke="#f08a8a" stroke-width="4.12" stroke-linecap="round"/>
<path d="M 39.30 19.32 L 38.39 19.65" stroke="#a3baef" stroke-width="4.12" stroke-linecap="round"/>
<path d="M 39.30 50.52 L 38.39 50.85" stroke="#f08a8a" stroke-width="4.12" stroke-linecap="round"/>
<path d="M 39.30 40.12 L 38.39 40.45" stroke="#a3baef" stroke-width="4.12" stroke-linecap="round"/>
<path d="M 39.30 8.93 L 38.39 9.25" stroke="#f08a8a" stroke-width="4.12" stroke-linecap="round"/>
<path d="M 25.61 13.15 L 24.70 13.47" stroke="#f08a8a" stroke-width="4.12" stroke-linecap="round"/>
<path d="M 25.61 33.95 L 24.70 34.27" stroke="#f08a8a" stroke-width="4.12" stroke-linecap="round"/>
<path d="M 25.61 23.55 L 24.70 23.88" stroke="#a3baef" stroke-width="4.12" stroke-linecap="round"/>
<path d="M 25.61 54.75 L 24.70 55.07" stroke="#f08a8a" stroke-width="4.12" stroke-linecap="round"/>
<path d="M 25.61 44.35 L 24.70 44.68" stroke="#a3baef" stroke-width="4.12" stroke-linecap="round"/>
<path d="M 38.39 50.85 L 37.42 51.18" stroke="#f48e8e" stroke-width="4.20" stroke-linecap="round"/>
<path d="M 38.39 40.45 L 37.42 40.77" stroke="#a7bff4" stroke-width="4.20" stroke-linecap="round"/>
<path d="M 38.39 30.05 L 37.42 30.38" stroke="#f48e8e" stroke-width="4.20" stroke-linecap="round"/>
<path d="M 38.39 19.65 L 37.42 19.98" stroke="#a7bff4" stroke-width="4.20" stroke-linecap="round"/>
<path d="M 38.39 9.25 L 37.42 9.57" stroke="#f48e8e" stroke-width="4.20" stroke-linecap="round"/>
<path d="M 26.58 12.82 L 25.61 13.15" stroke="#f48e8e" stroke-width="4.20" stroke-linecap="round"/>
<path d="M 26.58 33.62 L 25.61 33.95" stroke="#f48e8e" stroke-width="4.20" stroke-linecap="round"/>
<path d="M 26.58 23.22 L 25.61 23.55" stroke="#a7bff4" stroke-width="4.20" stroke-linecap="round"/>
<path d="M 26.58 54.43 L 25.61 54.75" stroke="#f48e8e" stroke-width="4.20" stroke-linecap="round"/>
<path d="M 26.58 44.02 L 25.61 44.35" stroke="#a7bff4" stroke-width="4.20" stroke-linecap="round"/>
<path d="M 37.42 51.18 L 36.40 51.50" stroke="#f79292" stroke-width="4.26" stroke-linecap="round"/>
<path d="M 37.42 40.77 L 36.40 41.10" stroke="#abc3f7" stroke-width="4.26" stroke-linecap="round"/>
<path d="M 37.42 30.38 L 36.40 30.70" stroke="#f79292" stroke-width="4.26" stroke-linecap="round"/>
<path d="M 37.42 19.98 L 36.40 20.30" stroke="#abc3f7" stroke-width="4.26" stroke-linecap="round"/>
<path d="M 37.42 9.57 L 36.40 9.90" stroke="#f79292" stroke-width="4.26" stroke-linecap="round"/>
<path d="M 27.60 12.50 L 26.58 12.82" stroke="#f79292" stroke-width="4.26" stroke-linecap="round"/>
<path d="M 27.60 33.30 L 26.58 33.62" stroke="#f79292" stroke-width="4.26" stroke-linecap="round"/>
<path d="M 27.60 22.90 L 26.58 23.22" stroke="#abc3f7" stroke-width="4.26" stroke-linecap="round"/>
<path d="M 27.60 54.10 L 26.58 54.43" stroke="#f79292" stroke-width="4.26" stroke-linecap="round"/>
<path d="M 27.60 43.70 L 26.58 44.02" stroke="#abc3f7" stroke-width="4.26" stroke-linecap="round"/>
<path d="M 36.40 51.50 L 35.34 51.82" stroke="#fa9595" stroke-width="4.32" stroke-linecap="round"/>
<path d="M 36.40 41.10 L 35.34 41.43" stroke="#aec6fa" stroke-width="4.32" stroke-linecap="round"/>
<path d="M 36.40 30.70 L 35.34 31.03" stroke="#fa9595" stroke-width="4.32" stroke-linecap="round"/>
<path d="M 36.40 20.30 L 35.34 20.62" stroke="#aec6fa" stroke-width="4.32" stroke-linecap="round"/>
<path d="M 36.40 9.90 L 35.34 10.23" stroke="#fa9595" stroke-width="4.32" stroke-linecap="round"/>
<path d="M 28.66 12.18 L 27.60 12.50" stroke="#fa9595" stroke-width="4.32" stroke-linecap="round"/>
<path d="M 28.66 32.98 L 27.60 33.30" stroke="#fa9595" stroke-width="4.32" stroke-linecap="round"/>
<path d="M 28.66 53.77 L 27.60 54.10" stroke="#fa9595" stroke-width="4.32" stroke-linecap="round"/>
<path d="M 28.66 22.57 L 27.60 22.90" stroke="#aec6fa" stroke-width="4.32" stroke-linecap="round"/>
<path d="M 28.66 43.38 L 27.60 43.70" stroke="#aec6fa" stroke-width="4.32" stroke-linecap="round"/>
<path d="M 35.34 31.03 L 34.24 31.35" stroke="#fc9797" stroke-width="4.36" stroke-linecap="round"/>
<path d="M 35.34 51.82 L 34.24 52.15" stroke="#fc9797" stroke-width="4.36" stroke-linecap="round"/>
<path d="M 35.34 20.62 L 34.24 20.95" stroke="#b1c9fc" stroke-width="4.36" stroke-linecap="round"/>
<path d="M 29.76 22.25 L 28.66 22.57" stroke="#b1c9fc" stroke-width="4.36" stroke-linecap="round"/>
<path d="M 35.34 41.43 L 34.24 41.75" stroke="#b1c9fc" stroke-width="4.36" stroke-linecap="round"/>
<path d="M 35.34 10.23 L 34.24 10.55" stroke="#fc9797" stroke-width="4.36" stroke-linecap="round"/>
<path d="M 29.76 11.85 L 28.66 12.18" stroke="#fc9797" stroke-width="4.36" stroke-linecap="round"/>
<path d="M 29.76 32.65 L 28.66 32.98" stroke="#fc9797" stroke-width="4.36" stroke-linecap="round"/>
<path d="M 29.76 53.45 L 28.66 53.77" stroke="#fc9797" stroke-width="4.36" stroke-linecap="round"/>
<path d="M 29.76 43.05 L 28.66 43.38" stroke="#b1c9fc" stroke-width="4.36" stroke-linecap="round"/>
<path d="M 34.24 10.55 L 33.13 10.88" stroke="#fe9999" stroke-width="4.38" stroke-linecap="round"/>
<path d="M 34.24 31.35 L 33.13 31.68" stroke="#fe9999" stroke-width="4.38" stroke-linecap="round"/>
<path d="M 34.24 52.15 L 33.13 52.48" stroke="#fe9999" stroke-width="4.38" stroke-linecap="round"/>
<path d="M 34.24 20.95 L 33.13 21.27" stroke="#b2cafe" stroke-width="4.38" stroke-linecap="round"/>
<path d="M 30.87 21.93 L 29.76 22.25" stroke="#b2cafe" stroke-width="4.38" stroke-linecap="round"/>
<path d="M 34.24 41.75 L 33.13 42.07" stroke="#b2cafe" stroke-width="4.38" stroke-linecap="round"/>
<path d="M 30.87 11.52 L 29.76 11.85" stroke="#fe9999" stroke-width="4.38" stroke-linecap="round"/>
<path d="M 30.87 32.33 L 29.76 32.65" stroke="#fe9999" stroke-width="4.38" stroke-linecap="round"/>
<path d="M 30.87 53.12 L 29.76 53.45" stroke="#fe9999" stroke-width="4.38" stroke-linecap="round"/>
<path d="M 30.87 42.73 L 29.76 43.05" stroke="#b2cafe" stroke-width="4.38" stroke-linecap="round"/>
<path d="M 33.13 10.88 L 32.00 11.20" stroke="#fe9999" stroke-width="4.40" stroke-linecap="round"/>
<path d="M 33.13 52.48 L 32.00 52.80" stroke="#fe9999" stroke-width="4.40" stroke-linecap="round"/>
<path d="M 33.13 42.07 L 32.00 42.40" stroke="#b3cbfe" stroke-width="4.40" stroke-linecap="round"/>
<path d="M 32.00 11.20 L 30.87 11.52" stroke="#fe9999" stroke-width="4.40" stroke-linecap="round"/>
<path d="M 33.13 31.68 L 32.00 32.00" stroke="#fe9999" stroke-width="4.40" stroke-linecap="round"/>
<path d="M 32.00 32.00 L 30.87 32.33" stroke="#fe9999" stroke-width="4.40" stroke-linecap="round"/>
<path d="M 32.00 52.80 L 30.87 53.12" stroke="#fe9999" stroke-width="4.40" stroke-linecap="round"/>
<path d="M 33.13 21.27 L 32.00 21.60" stroke="#b3cbfe" stroke-width="4.40" stroke-linecap="round"/>
<path d="M 32.00 21.60 L 30.87 21.93" stroke="#b3cbfe" stroke-width="4.40" stroke-linecap="round"/>
<path d="M 32.00 42.40 L 30.87 42.73" stroke="#b3cbfe" stroke-width="4.40" stroke-linecap="round"/>
</g>
</svg>
