<svg xmlns="http://www.w3.org/2000/svg" viewBox="0 0 20 20">
  <defs>
    <clipPath id="planetClip">
      <circle cx="10" cy="9" r="8"/>
    </clipPath>
    <radialGradient id="sphereShade" cx="35%" cy="28%" r="75%">
      <stop offset="0%" stop-color="#ffffff" stop-opacity="0.6"/>
      <stop offset="45%" stop-color="#ffffff" stop-opacity="0"/>
      <stop offset="100%" stop-color="#000000" stop-opacity="0.8"/>
    </radialGradient>
  </defs>

  <!-- gas giant disc -->
  <circle cx="10" cy="9" r="8" fill="#dba263"/>
  <g clip-path="url(#planetClip)">
    <rect x="0" y="0" width="20" height="1.6" fill="#c07f42"/>
    <path d="M0,1.6 L20,1.6 L20,4.8 L0,4.2 Z" fill="#eec092"/>
    <path d="M0,4.2 L20,4.8 L20,5.8 L0,5.5 Z" fill="#a95f2c"/>
    <rect x="0" y="5.5" width="20" height="0.6" fill="#f5d6a8"/>
    <path d="M0,6.1 L20,6.4 L20,9.6 L0,10.2 Z" fill="#c98849"/>
    <path d="M0,10.2 L20,9.6 L20,10.3 L0,10.9 Z" fill="#8f5527"/>
    <path d="M0,10.9 L20,10.3 L20,13.2 L0,12.8 Z" fill="#e2ac70"/>
    <rect x="0" y="12.8" width="20" height="0.5" fill="#b06c34"/>
    <path d="M0,13.3 L20,13.3 L20,17 L0,16 Z" fill="#9c5e2c"/>
  </g>

  <!-- spherical shading for depth -->
  <circle cx="10" cy="9" r="8" fill="url(#sphereShade)"/>

  <!-- receding mountain range: same shapes as the square-crop version -->
  <polygon points="-8,20 -8,13 -4,11.5 -1,12.8 2,11 5,12.5 8,10.8 11,12.6 14,11.2 17,12.8 20,11 22,12.5 22,20"
           fill="#9fb3c8"/>
  <polygon points="-8,20 -8,15 -6.2,13 -3.2,14.5 -0.2,12.5 2.8,14.2 5.8,10.3 8.8,14 11.8,12.3 14.8,14.5 17.8,12.8 22,14 22,20"
           fill="#7d93ac"/>
  <polygon points="-8,20 -8,17 -3,15 0,16.5 3,14.5 6,16.2 9,11 12,16 15,14.3 18,16.5 21,14.8 22,16 22,20"
           fill="#56708c"/>
  <polygon points="-8,20 -8,19.5 -2,10 7,19 15,13 22,19.2 22,20"
           fill="#1a2431"/>
</svg>
