<svg xmlns="http://www.w3.org/2000/svg" viewBox="0 0 64 64" width="64" height="64">
<defs>
<radialGradient id="tShadow" cx="0.5" cy="0.5" r="0.5">
<stop offset="0" stop-color="#10150f" stop-opacity="0.9"/>
<stop offset="0.62" stop-color="#141a12" stop-opacity="0.85"/>
<stop offset="0.86" stop-color="#141a12" stop-opacity="0.55"/>
<stop offset="1" stop-color="#141a12" stop-opacity="0"/></radialGradient>
<radialGradient id="tPetal" cx="0.5" cy="0.78" r="0.9">
<stop offset="0" stop-color="#c4cabb"/><stop offset="0.4" stop-color="#8b9486"/>
<stop offset="0.78" stop-color="#525c4f"/><stop offset="1" stop-color="#33402f"/></radialGradient>
<linearGradient id="tHi" x1="0.35" y1="1" x2="0.62" y2="0">
<stop offset="0" stop-color="#e6e9dc" stop-opacity="0"/>
<stop offset="0.45" stop-color="#e9ecdf" stop-opacity="0.85"/>
<stop offset="1" stop-color="#aeb6a4" stop-opacity="0.1"/></linearGradient>
<radialGradient id="tHub" cx="0.5" cy="0.5" r="0.5">
<stop offset="0" stop-color="#384434"/><stop offset="1" stop-color="#10160e"/></radialGradient>
<radialGradient id="tCore" cx="0.5" cy="0.5" r="0.5">
<stop offset="0" stop-color="#bdf07a"/><stop offset="0.55" stop-color="#5f9e34"/>
<stop offset="1" stop-color="#1f3315"/></radialGradient></defs>
<g>
<circle cx="32" cy="32" r="23" fill="url(#tShadow)"/>
<g transform="rotate(0 32 32)"><path d="M 32 28.5 C 24.5 26.5 18.5 12.5 34.8 3.6 C 37.6 14.8 35.8 24 32 28.5 Z" fill="url(#tPetal)" stroke="#161c14" stroke-width="0.7"/><path d="M 32 26.6 C 26.5 24.8 21.5 12.5 34 6.2 C 35.6 15 34.6 22.5 32 26.6 Z" fill="url(#tHi)" opacity="0.9"/><path d="M 31.6 27 C 29 20 27.6 11 34 4.6" fill="none" stroke="#5f8f3a" stroke-width="0.55" opacity="0.55" stroke-linecap="round"/><path d="M 32.8 27 C 32 18 32.6 10 34.4 5" fill="none" stroke="#2c3a26" stroke-width="0.5" opacity="0.6" stroke-linecap="round"/></g>
<g transform="rotate(45 32 32)"><path d="M 32 28.5 C 24.5 26.5 18.5 12.5 34.8 3.6 C 37.6 14.8 35.8 24 32 28.5 Z" fill="url(#tPetal)" stroke="#161c14" stroke-width="0.7"/><path d="M 32 26.6 C 26.5 24.8 21.5 12.5 34 6.2 C 35.6 15 34.6 22.5 32 26.6 Z" fill="url(#tHi)" opacity="0.9"/><path d="M 31.6 27 C 29 20 27.6 11 34 4.6" fill="none" stroke="#5f8f3a" stroke-width="0.55" opacity="0.55" stroke-linecap="round"/><path d="M 32.8 27 C 32 18 32.6 10 34.4 5" fill="none" stroke="#2c3a26" stroke-width="0.5" opacity="0.6" stroke-linecap="round"/></g>
<g transform="rotate(90 32 32)"><path d="M 32 28.5 C 24.5 26.5 18.5 12.5 34.8 3.6 C 37.6 14.8 35.8 24 32 28.5 Z" fill="url(#tPetal)" stroke="#161c14" stroke-width="0.7"/><path d="M 32 26.6 C 26.5 24.8 21.5 12.5 34 6.2 C 35.6 15 34.6 22.5 32 26.6 Z" fill="url(#tHi)" opacity="0.9"/><path d="M 31.6 27 C 29 20 27.6 11 34 4.6" fill="none" stroke="#5f8f3a" stroke-width="0.55" opacity="0.55" stroke-linecap="round"/><path d="M 32.8 27 C 32 18 32.6 10 34.4 5" fill="none" stroke="#2c3a26" stroke-width="0.5" opacity="0.6" stroke-linecap="round"/></g>
<g transform="rotate(135 32 32)"><path d="M 32 28.5 C 24.5 26.5 18.5 12.5 34.8 3.6 C 37.6 14.8 35.8 24 32 28.5 Z" fill="url(#tPetal)" stroke="#161c14" stroke-width="0.7"/><path d="M 32 26.6 C 26.5 24.8 21.5 12.5 34 6.2 C 35.6 15 34.6 22.5 32 26.6 Z" fill="url(#tHi)" opacity="0.9"/><path d="M 31.6 27 C 29 20 27.6 11 34 4.6" fill="none" stroke="#5f8f3a" stroke-width="0.55" opacity="0.55" stroke-linecap="round"/><path d="M 32.8 27 C 32 18 32.6 10 34.4 5" fill="none" stroke="#2c3a26" stroke-width="0.5" opacity="0.6" stroke-linecap="round"/></g>
<g transform="rotate(180 32 32)"><path d="M 32 28.5 C 24.5 26.5 18.5 12.5 34.8 3.6 C 37.6 14.8 35.8 24 32 28.5 Z" fill="url(#tPetal)" stroke="#161c14" stroke-width="0.7"/><path d="M 32 26.6 C 26.5 24.8 21.5 12.5 34 6.2 C 35.6 15 34.6 22.5 32 26.6 Z" fill="url(#tHi)" opacity="0.9"/><path d="M 31.6 27 C 29 20 27.6 11 34 4.6" fill="none" stroke="#5f8f3a" stroke-width="0.55" opacity="0.55" stroke-linecap="round"/><path d="M 32.8 27 C 32 18 32.6 10 34.4 5" fill="none" stroke="#2c3a26" stroke-width="0.5" opacity="0.6" stroke-linecap="round"/></g>
<g transform="rotate(225 32 32)"><path d="M 32 28.5 C 24.5 26.5 18.5 12.5 34.8 3.6 C 37.6 14.8 35.8 24 32 28.5 Z" fill="url(#tPetal)" stroke="#161c14" stroke-width="0.7"/><path d="M 32 26.6 C 26.5 24.8 21.5 12.5 34 6.2 C 35.6 15 34.6 22.5 32 26.6 Z" fill="url(#tHi)" opacity="0.9"/><path d="M 31.6 27 C 29 20 27.6 11 34 4.6" fill="none" stroke="#5f8f3a" stroke-width="0.55" opacity="0.55" stroke-linecap="round"/><path d="M 32.8 27 C 32 18 32.6 10 34.4 5" fill="none" stroke="#2c3a26" stroke-width="0.5" opacity="0.6" stroke-linecap="round"/></g>
<g transform="rotate(270 32 32)"><path d="M 32 28.5 C 24.5 26.5 18.5 12.5 34.8 3.6 C 37.6 14.8 35.8 24 32 28.5 Z" fill="url(#tPetal)" stroke="#161c14" stroke-width="0.7"/><path d="M 32 26.6 C 26.5 24.8 21.5 12.5 34 6.2 C 35.6 15 34.6 22.5 32 26.6 Z" fill="url(#tHi)" opacity="0.9"/><path d="M 31.6 27 C 29 20 27.6 11 34 4.6" fill="none" stroke="#5f8f3a" stroke-width="0.55" opacity="0.55" stroke-linecap="round"/><path d="M 32.8 27 C 32 18 32.6 10 34.4 5" fill="none" stroke="#2c3a26" stroke-width="0.5" opacity="0.6" stroke-linecap="round"/></g>
<g transform="rotate(315 32 32)"><path d="M 32 28.5 C 24.5 26.5 18.5 12.5 34.8 3.6 C 37.6 14.8 35.8 24 32 28.5 Z" fill="url(#tPetal)" stroke="#161c14" stroke-width="0.7"/><path d="M 32 26.6 C 26.5 24.8 21.5 12.5 34 6.2 C 35.6 15 34.6 22.5 32 26.6 Z" fill="url(#tHi)" opacity="0.9"/><path d="M 31.6 27 C 29 20 27.6 11 34 4.6" fill="none" stroke="#5f8f3a" stroke-width="0.55" opacity="0.55" stroke-linecap="round"/><path d="M 32.8 27 C 32 18 32.6 10 34.4 5" fill="none" stroke="#2c3a26" stroke-width="0.5" opacity="0.6" stroke-linecap="round"/></g>
<circle cx="32" cy="32" r="5.6" fill="#10160e" stroke="#0a0e08" stroke-width="0.5"/>
<circle cx="32" cy="32" r="4.2" fill="url(#tHub)"/>
<path d="M 32 28.8 C 34.3 29.2 34.8 32 33.5 34.2 C 32.85 35.35 31.15 35.35 30.5 34.2 C 29.2 32 29.7 29.2 32 28.8 Z" fill="#161e12"/>
<circle cx="32" cy="32.2" r="2.1" fill="url(#tCore)"/>
<circle cx="31.6" cy="31.6" r="0.8" fill="#cdee8c"/></g>
</svg>
